<svg width="240" height="240" viewBox="0 0 240 240" fill="none" xmlns="http://www.w3.org/2000/svg">
<g clip-path="url(#clip0_234_317)">
<path d="M220 0H20C8.9543 0 0 8.9543 0 20V220C0 231.046 8.9543 240 20 240H220C231.046 240 240 231.046 240 220V20C240 8.9543 231.046 0 220 0Z" fill="url(#paint0_linear_234_317)"/>
<path d="M58.2668 185.12L59.3134 192.356L60.8653 185.824L71.7285 147.514H77.8277L88.4202 185.824L89.9359 192.465L91.1089 185.066L99.6262 147.514H106.898L93.5811 202.408H86.9766L75.6623 162.402L74.7961 158.215L73.93 162.402L62.2006 202.408H55.5961L42.333 147.514H49.5691L58.2488 185.102L58.2668 185.12Z" fill="white"/>
<path d="M122.164 180.934V202.426H114.928V147.532H135.175C141.184 147.532 145.894 149.066 149.286 152.134C152.697 155.202 154.393 159.262 154.393 164.314C154.393 169.638 152.733 173.752 149.394 176.621C146.056 179.508 141.292 180.934 135.085 180.934H122.146H122.164ZM122.164 175.015H135.175C139.036 175.015 142.014 174.095 144.071 172.272C146.128 170.45 147.157 167.815 147.157 164.369C147.157 161.102 146.128 158.486 144.071 156.519C142.014 154.552 139.181 153.541 135.59 153.451H122.164V175.015Z" fill="white"/>
<path d="M193.912 178.191H170.868V202.426H163.632V147.532H197.647V153.451H170.886V172.272H193.93V178.191H193.912Z" fill="white"/>
<path d="M44.6492 114.72H44.5535C38.2217 114.72 31.9472 113.209 26.4187 110.397L23.5493 108.943L64.3526 47.3648C70.6079 37.934 81.7222 31.9656 94.0607 31.4108C94.3859 31.4108 94.7494 31.3917 95.1129 31.3726C95.3615 31.3726 95.725 31.3726 96.0693 31.3726C96.4519 31.3726 96.8345 31.3726 97.2171 31.3917L98.3075 31.4299C111.469 32.1186 121.684 37.7044 127.958 47.5753C134.156 58.613 152.253 87.8238 162.487 92.0897C168.149 94.4617 175.208 95.7243 175.266 95.7434L174.271 101.387C173.965 101.329 166.542 99.9902 160.268 97.3885C146.361 91.5923 125.376 54.6914 123.023 50.5021C116.5 40.2295 105.845 37.5705 98.0779 37.1497H97.0641C96.6432 37.1114 96.2415 37.0923 95.8206 37.0923C95.6676 37.0923 95.5146 37.0923 95.3615 37.0923C94.9407 37.0923 94.6346 37.1114 94.3285 37.1305C83.9795 37.6088 74.7208 42.4294 69.4219 50.0812C71.0479 49.7369 72.8652 49.4882 74.8738 49.4117C89.8714 48.7613 98.0588 61.7311 98.4031 62.2859L99.7231 64.4092L98.1162 65.7483L76.2703 98.6894C69.7089 108.56 57.5999 114.701 44.6492 114.701V114.72ZM31.9663 106.609C35.9261 108.158 40.2303 108.962 44.5535 108.981H44.6492C55.706 108.981 65.9786 103.835 71.4879 95.5521L92.473 63.9119C90.1392 61.0233 84.1134 54.8254 75.1225 55.1697C69.6515 55.3992 66.0934 57.0061 64.0656 58.3069L64.0274 58.2495L31.9663 106.609Z" fill="white"/>
<path d="M148.312 119.311C132.836 119.311 125.376 110.033 119.847 103.185L118.738 101.807C118.26 101.234 117.418 100.105 116.347 98.6511C112.023 92.7975 94.3476 66.5135 93.6016 65.404L98.3648 62.2093C98.5561 62.4772 116.71 89.488 120.976 95.246C121.971 96.5851 122.755 97.6372 123.195 98.1729L124.324 99.5693C129.871 106.437 136.184 114.223 150.091 113.515C158.986 113.056 166.657 106.092 170.885 99.7415L208.034 43.692C204.075 42.1425 199.77 41.339 195.428 41.3199H195.351C185.653 41.3199 176.853 46.5805 167.671 57.9052C164.706 61.5589 162.085 66.15 159.56 70.569C156.729 75.5426 153.802 80.6693 150.244 84.7822L145.902 81.0328C149.096 77.3408 151.755 72.6732 154.586 67.7187C157.226 63.0893 159.962 58.2878 163.233 54.2706C173.448 41.6834 183.969 35.5811 195.371 35.5811H195.447C201.779 35.5811 208.053 37.0923 213.601 39.9043L216.47 41.3582L175.667 102.917C169.201 112.673 159.751 118.775 150.397 119.254C149.689 119.292 149.001 119.311 148.331 119.311H148.312Z" fill="white"/>
</g>
<defs>
<linearGradient id="paint0_linear_234_317" x1="4.4" y1="0.100001" x2="230.56" y2="234.66" gradientUnits="userSpaceOnUse">
<stop stop-color="#0088CC"/>
<stop offset="0.63" stop-color="#0D6EB2"/>
<stop offset="1" stop-color="#175EA1"/>
</linearGradient>
<clipPath id="clip0_234_317">
<rect width="240" height="240" fill="white"/>
</clipPath>
</defs>
</svg>
